<svg width="51" height="51" viewBox="0 0 51 51" fill="none" xmlns="http://www.w3.org/2000/svg">
<path d="M25.5 14.875C26.6736 14.875 27.625 13.9236 27.625 12.75C27.625 11.5764 26.6736 10.625 25.5 10.625C24.3264 10.625 23.375 11.5764 23.375 12.75C23.375 13.9236 24.3264 14.875 25.5 14.875Z" fill="white"/>
<path d="M12.75 36.125H38.25V40.375H12.75V36.125ZM21.25 25.1388L27.183 31.076L35.5385 22.7141L38.25 25.5V17H29.75L32.5338 19.7094L27.1809 25.0622L21.25 19.125L12.75 27.625L15.7548 30.6297L21.25 25.1388Z" fill="white"/>
<path d="M40.375 6.37504H33.3667C33.1581 6.06084 32.931 5.75927 32.6868 5.47191L32.6655 5.44641C31.1042 3.62795 28.9076 2.47414 26.5243 2.22066C25.8475 2.09181 25.1525 2.09181 24.4757 2.22066C22.0924 2.47414 19.8958 3.62795 18.3345 5.44641L18.3132 5.47191C18.069 5.75859 17.842 6.05944 17.6333 6.37291V6.37504H10.625C8.93476 6.37673 7.31424 7.04892 6.11906 8.2441C4.92388 9.43928 4.25169 11.0598 4.25 12.75V42.5C4.25169 44.1903 4.92388 45.8108 6.11906 47.006C7.31424 48.2012 8.93476 48.8733 10.625 48.875H40.375C42.0652 48.8733 43.6858 48.2012 44.8809 47.006C46.0761 45.8108 46.7483 44.1903 46.75 42.5V12.75C46.7483 11.0598 46.0761 9.43928 44.8809 8.2441C43.6858 7.04892 42.0652 6.37673 40.375 6.37504ZM42.5 42.5C42.5 43.0636 42.2761 43.6041 41.8776 44.0026C41.4791 44.4012 40.9386 44.625 40.375 44.625H10.625C10.0616 44.6245 9.52141 44.4004 9.12302 44.002C8.72463 43.6036 8.50056 43.0634 8.5 42.5V12.75C8.50056 12.1866 8.72463 11.6465 9.12302 11.2481C9.52141 10.8497 10.0616 10.6256 10.625 10.625H20.2938C20.5376 9.42411 21.1891 8.34441 22.138 7.56889C23.0868 6.79337 24.2746 6.36971 25.5 6.36971C26.7254 6.36971 27.9132 6.79337 28.862 7.56889C29.8109 8.34441 30.4624 9.42411 30.7062 10.625H40.375C40.9384 10.6256 41.4786 10.8497 41.877 11.2481C42.2754 11.6465 42.4994 12.1866 42.5 12.75V42.5Z" fill="white"/>
</svg>
