<svg width="25" height="21" viewBox="0 0 25 21" fill="none" xmlns="http://www.w3.org/2000/svg">
<g clip-path="url(#clip0_25_342)">
<path d="M25 2.55719C24.0801 2.97689 23.0916 3.26054 22.0541 3.38815C23.1132 2.73504 23.9264 1.70082 24.3093 0.468549C23.3025 1.08326 22.201 1.51637 21.0523 1.74915C20.1167 0.723563 18.7838 0.0826111 17.3085 0.0826111C14.4759 0.0826111 12.1793 2.44546 12.1793 5.35974C12.1793 5.77341 12.2247 6.17613 12.3121 6.56247C8.04941 6.34232 4.27012 4.24141 1.74033 1.04861C1.29893 1.82802 1.046 2.73464 1.046 3.70164C1.046 5.53256 1.95156 7.14775 3.32773 8.09416C2.51323 8.06791 1.71665 7.84157 1.00449 7.43402C1.0042 7.45612 1.0042 7.47823 1.0042 7.50043C1.0042 10.0573 2.77217 12.1903 5.11846 12.6751C4.36317 12.8864 3.57093 12.9174 2.80225 12.7655C3.45488 14.8621 5.34912 16.3878 7.59346 16.4305C5.83809 17.8458 3.62646 18.6895 1.22354 18.6895C0.809473 18.6895 0.40127 18.6645 0 18.6158C2.26982 20.1131 4.96582 20.9868 7.8623 20.9868C17.2966 20.9868 22.4555 12.9454 22.4555 5.97175C22.4555 5.74286 22.4506 5.51528 22.4406 5.289C23.4448 4.54213 24.3114 3.61706 25 2.55719Z" fill="white"/>
</g>
<defs>
<clipPath id="clip0_25_342">
<rect width="25" height="21" fill="white"/>
</clipPath>
</defs>
</svg>
