<svg width="230" height="26" viewBox="0 0 230 26" fill="none" xmlns="http://www.w3.org/2000/svg">
<path d="M22 13H21.8843C17.5277 13 14 7.70843 14 1.17349V1L16.0048 1V1.17349C16.0048 6.03132 18.6458 9.99277 21.8843 9.99277H22V13Z" fill="white"/>
<path d="M16.0048 25H14V24.8265C14 18.2916 17.5277 13 21.8843 13H22V16.0072H21.8843C18.6458 16.0072 16.0048 19.9687 16.0048 24.8265V25Z" fill="white"/>
<path d="M8 25H5.99518V24.8265C5.99518 19.9687 3.35422 16.0072 0.115663 16.0072H0L0 13H0.115663C4.47229 13 8 18.2916 8 24.8265V25Z" fill="white"/>
<path d="M0.115663 13H0L0 9.99277H0.115663C3.35422 9.99277 5.99518 6.03132 5.99518 1.17349V1L8 1V1.17349C8 7.70843 4.47229 13 0.115663 13Z" fill="white"/>
<path d="M9.73298 26H9L12.288 0L13 0L9.73298 26Z" fill="white"/>
<path d="M26.7556 12.8876C26.7556 6.67508 29.3887 2.44714 33.8769 2.44714C38.3652 2.44714 40.34 5.89852 40.34 9.60876H37.4675C37.1085 7.7105 35.9116 6.24366 33.8769 6.24366C31.8423 6.24366 29.9273 8.65963 29.9273 12.9739C29.9273 17.2881 31.2439 19.704 33.8769 19.704C36.51 19.704 37.288 17.8921 37.4675 14.9584H34.236V11.8522L40.4597 11.8522V23.1554H38.1856L37.8864 20.1355C37.2282 22.2926 35.8518 23.4143 33.5179 23.4143C29.1494 23.4143 26.6958 19.1863 26.6958 12.9739L26.7556 12.8876Z" fill="white"/>
<path d="M42.375 23.069V2.70581L45.5467 2.70581V19.2724L52.0695 19.2724V22.9827L42.375 22.9827V23.069Z" fill="white"/>
<path d="M53.4458 23.069V2.70581L56.6175 2.70581V22.9827H53.4458V23.069Z" fill="white"/>
<path d="M62.0625 23.069V6.50233L57.8735 6.50233V2.70581L69.4232 2.70581V6.41604L65.2342 6.41604V22.9827H62.0625V23.069Z" fill="white"/>
<path d="M69.4238 12.8876C69.4238 6.67508 72.0569 2.44714 76.5451 2.44714C81.0334 2.44714 83.1877 5.72595 83.1877 10.299H80.1956C79.9562 7.96935 78.8192 6.15738 76.605 6.15738C74.3908 6.15738 72.6553 8.57334 72.6553 12.8876C72.6553 17.2018 73.9719 19.6178 76.605 19.6178C79.2381 19.6178 79.9562 17.9784 80.1956 15.3035L83.1877 15.3035C83.1877 19.9629 80.4948 23.328 76.5451 23.328C72.5955 23.328 69.4238 19.1001 69.4238 12.8876Z" fill="white"/>
<path d="M93.8396 23.069V14.6994L87.8553 14.6994V23.069H84.6836V2.70581L87.8553 2.70581V10.7303L93.8396 10.7303V2.70581L97.0112 2.70581V22.9827H93.8396V23.069Z" fill="white"/>
<path d="M98.0889 23.0695L103.235 2.7926L105.928 2.7926L100.782 23.0695H98.0889Z" fill="white"/>
<path d="M116.161 23.069V14.6994L110.177 14.6994V23.069H107.005V2.70581L110.177 2.70581V10.7303L116.161 10.7303V2.70581L119.333 2.70581V22.9827H116.161V23.069Z" fill="white"/>
<path d="M131.361 23.0695L130.463 19.2729L124.658 19.2729L123.761 23.0695H120.529L125.616 2.7926L129.506 2.7926L134.592 23.0695H131.361ZM127.531 6.84797L125.377 15.7353H129.625L127.471 6.84797H127.531Z" fill="white"/>
<path d="M134.293 12.8876C134.293 6.67508 136.927 2.44714 141.415 2.44714C145.903 2.44714 148.057 5.72595 148.057 10.299H145.065C144.826 7.96935 143.689 6.15738 141.475 6.15738C139.26 6.15738 137.525 8.57334 137.525 12.8876C137.525 17.2018 138.842 19.6178 141.475 19.6178C144.108 19.6178 144.826 17.9784 145.065 15.3035L148.057 15.3035C148.057 19.9629 145.364 23.328 141.415 23.328C137.465 23.328 134.293 19.1001 134.293 12.8876Z" fill="white"/>
<path d="M158.35 23.069L154.46 14.5268L152.665 17.2879V22.9827H149.493V2.70581L152.665 2.70581V11.7657L158.111 2.70581L161.821 2.70581L156.555 11.0754L162.06 22.9827H158.35V23.069Z" fill="white"/>
<path d="M173.132 23.0695L172.234 19.2729L166.429 19.2729L165.532 23.0695H162.3L167.387 2.7926L171.277 2.7926L176.363 23.0695H173.132ZM169.302 6.84797L167.148 15.7353H171.396L169.242 6.84797H169.302Z" fill="white"/>
<path d="M178.996 23.069V6.50233L174.807 6.50233V2.70581L186.356 2.70581V6.41604L182.167 6.41604V22.9827H178.996V23.069Z" fill="white"/>
<path d="M196.769 23.069V14.6994L190.784 14.6994V23.069H187.613V2.70581L190.784 2.70581V10.7303L196.769 10.7303V2.70581L199.94 2.70581V22.9827H196.769V23.069Z" fill="white"/>
<path d="M201.497 12.8876C201.497 6.67508 204.13 2.44714 208.618 2.44714C213.106 2.44714 215.739 6.67508 215.739 12.8876C215.739 19.1001 213.106 23.328 208.618 23.328C204.13 23.328 201.497 19.1001 201.497 12.8876ZM212.568 12.8876C212.568 8.57334 211.251 6.15738 208.618 6.15738C205.985 6.15738 204.668 8.57334 204.668 12.8876C204.668 17.2018 205.985 19.6178 208.618 19.6178C211.251 19.6178 212.568 17.2018 212.568 12.8876Z" fill="white"/>
<path d="M226.212 23.069L220.288 9.34972V23.069H217.295V2.70581L220.647 2.70581L226.571 16.425V2.70581L229.563 2.70581V22.9827H226.212V23.069Z" fill="white"/>
</svg>
