<svg width="70" height="70" viewBox="0 0 70 70" fill="none" xmlns="http://www.w3.org/2000/svg">
<path d="M62.446 33.2792L36.6918 7.52504C35.6127 6.44587 34.1252 5.83337 32.5793 5.83337H11.6668C8.4585 5.83337 5.8335 8.45837 5.8335 11.6667V32.5792C5.8335 34.125 6.446 35.6125 7.55433 36.6917L33.3085 62.4459C35.5835 64.7209 39.2877 64.7209 41.5627 62.4459L62.4752 41.5334C64.7502 39.2584 64.7502 35.5834 62.446 33.2792ZM18.9585 23.3334C16.5377 23.3334 14.5835 21.3792 14.5835 18.9584C14.5835 16.5375 16.5377 14.5834 18.9585 14.5834C21.3793 14.5834 23.3335 16.5375 23.3335 18.9584C23.3335 21.3792 21.3793 23.3334 18.9585 23.3334Z" fill="white"/>
</svg>
