<svg width="95" height="20" viewBox="0 0 95 20" fill="none" xmlns="http://www.w3.org/2000/svg">
<path d="M0.725586 19.0406V1.91318H3.48332V15.6787H8.22996V19.0406H0.725586Z" fill="white"/>
<path d="M9.65757 19.0406V6.19503H12.3819V19.0406H9.65757ZM11.0225 4.69806C10.64 4.69806 10.3113 4.5085 10.0364 4.12937C9.76157 3.74468 9.62415 3.28192 9.62415 2.74112C9.62415 2.20589 9.76157 1.74871 10.0364 1.36959C10.3113 0.98489 10.64 0.792542 11.0225 0.792542C11.4088 0.792542 11.7375 0.98489 12.0086 1.36959C12.2835 1.74871 12.4209 2.20589 12.4209 2.74112C12.4209 3.28192 12.2835 3.74468 12.0086 4.12937C11.7375 4.5085 11.4088 4.69806 11.0225 4.69806Z" fill="white"/>
<path d="M18.9795 6.19503V9.20571H13.4752V6.19503H18.9795ZM14.6229 19.0406V5.54272C14.6229 4.55031 14.7473 3.72795 14.9962 3.07564C15.245 2.41775 15.5904 1.92712 16.0324 1.60375C16.4744 1.27481 16.9851 1.11033 17.5645 1.11033C17.9433 1.11033 18.2999 1.15494 18.6341 1.24414C18.9721 1.32777 19.2228 1.40304 19.3862 1.46994L18.9517 4.46389C18.8514 4.41372 18.7288 4.3719 18.584 4.33845C18.4429 4.305 18.3091 4.28827 18.1829 4.28827C17.8634 4.28827 17.6443 4.3942 17.5255 4.60607C17.4066 4.81793 17.3472 5.10784 17.3472 5.47582V19.0406H14.6229Z" fill="white"/>
<path d="M24.0145 19.2831C23.1194 19.2831 22.3469 19.0183 21.6969 18.4886C21.0506 17.9534 20.5529 17.1924 20.2038 16.2055C19.8584 15.2131 19.6857 14.0339 19.6857 12.668C19.6857 11.3411 19.8603 10.1814 20.2094 9.18898C20.5585 8.191 21.0506 7.41603 21.6857 6.86407C22.3209 6.30654 23.0692 6.02777 23.9309 6.02777C24.54 6.02777 25.0972 6.16994 25.6023 6.45428C26.1074 6.73863 26.5438 7.15956 26.9115 7.7171C27.2792 8.27463 27.5652 8.96318 27.7695 9.78275C27.9737 10.5968 28.0759 11.5306 28.0759 12.5844V13.6046H20.6384V11.2296H25.541C25.5373 10.7947 25.4686 10.4072 25.3349 10.0671C25.2012 9.727 25.0173 9.46217 24.7833 9.27261C24.553 9.07748 24.2875 8.97991 23.9866 8.97991C23.6821 8.97991 23.4091 9.08305 23.1677 9.28934C22.9263 9.49005 22.735 9.76603 22.5938 10.1173C22.4527 10.4629 22.3784 10.856 22.371 11.2965V13.7134C22.371 14.2374 22.4397 14.6974 22.5771 15.0933C22.7146 15.4835 22.9095 15.7874 23.1621 16.0048C23.4147 16.2223 23.7155 16.331 24.0646 16.331C24.306 16.331 24.5252 16.2808 24.722 16.1804C24.9189 16.0801 25.0879 15.9323 25.229 15.7372C25.3701 15.5421 25.476 15.3023 25.5466 15.018L28.048 15.1267C27.944 15.9686 27.7156 16.7017 27.3628 17.3262C27.0136 17.945 26.5549 18.4273 25.9867 18.773C25.4184 19.1131 24.761 19.2831 24.0145 19.2831Z" fill="white"/>
<path d="M34.3309 6.19503V9.20571H28.8266V6.19503H34.3309ZM29.9743 19.0406V5.54272C29.9743 4.55031 30.0987 3.72795 30.3475 3.07564C30.5964 2.41775 30.9418 1.92712 31.3838 1.60375C31.8257 1.27481 32.3364 1.11033 32.9158 1.11033C33.2947 1.11033 33.6512 1.15494 33.9855 1.24414C34.3235 1.32777 34.5742 1.40304 34.7376 1.46994L34.3031 4.46389C34.2028 4.41372 34.0802 4.3719 33.9354 4.33845C33.7942 4.305 33.6605 4.28827 33.5342 4.28827C33.2148 4.28827 32.9957 4.3942 32.8768 4.60607C32.758 4.81793 32.6986 5.10784 32.6986 5.47582V19.0406H29.9743Z" fill="white"/>
<path d="M39.3603 19.2831C38.4615 19.2831 37.6889 19.0071 37.0427 18.4552C36.4001 17.8976 35.9043 17.1227 35.5552 16.1303C35.2098 15.1323 35.0371 13.9754 35.0371 12.6596C35.0371 11.3383 35.2098 10.1814 35.5552 9.18898C35.9043 8.191 36.4001 7.41603 37.0427 6.86407C37.6889 6.30654 38.4615 6.02777 39.3603 6.02777C40.2591 6.02777 41.0298 6.30654 41.6723 6.86407C42.3186 7.41603 42.8144 8.191 43.1598 9.18898C43.509 10.1814 43.6835 11.3383 43.6835 12.6596C43.6835 13.9754 43.509 15.1323 43.1598 16.1303C42.8144 17.1227 42.3186 17.8976 41.6723 18.4552C41.0298 19.0071 40.2591 19.2831 39.3603 19.2831ZM39.377 16.1972C39.7039 16.1972 39.9806 16.0466 40.2071 15.7456C40.4337 15.4445 40.6064 15.0263 40.7252 14.4911C40.8478 13.9559 40.9091 13.337 40.9091 12.6345C40.9091 11.9209 40.8478 11.2965 40.7252 10.7612C40.6064 10.226 40.4337 9.80784 40.2071 9.50678C39.9806 9.20571 39.7039 9.05517 39.377 9.05517C39.039 9.05517 38.753 9.20571 38.519 9.50678C38.2888 9.80784 38.1124 10.226 37.9898 10.7612C37.8709 11.2965 37.8115 11.9209 37.8115 12.6345C37.8115 13.337 37.8709 13.9559 37.9898 14.4911C38.1124 15.0263 38.2888 15.4445 38.519 15.7456C38.753 16.0466 39.039 16.1972 39.377 16.1972Z" fill="white"/>
<path d="M50.6001 13.4959V6.19503H53.3189V19.0406H50.7227V16.6488H50.6336C50.4441 17.4349 50.121 18.0593 49.6642 18.5221C49.2111 18.9793 48.6632 19.2078 48.0207 19.2078C47.4376 19.2078 46.925 19.0071 46.483 18.6057C46.0411 18.2043 45.6975 17.644 45.4524 16.9247C45.2072 16.2 45.0828 15.3525 45.0791 14.3824V6.19503H47.8034V13.5796C47.8071 14.2765 47.9297 14.8256 48.1711 15.2271C48.4125 15.6285 48.7412 15.8292 49.1572 15.8292C49.4283 15.8292 49.6716 15.74 49.887 15.5616C50.1062 15.3776 50.2789 15.1128 50.4051 14.7671C50.5351 14.4159 50.6001 13.9921 50.6001 13.4959Z" fill="white"/>
<path d="M55.0529 19.0406V6.19503H57.6992V8.53667H57.7883C57.9443 7.68922 58.1988 7.05921 58.5516 6.64663C58.9044 6.22848 59.3148 6.01941 59.7828 6.01941C59.9091 6.01941 60.0391 6.03335 60.1728 6.06122C60.3065 6.08353 60.4309 6.11977 60.5461 6.16994V9.72421C60.4161 9.65731 60.2452 9.60434 60.0335 9.56532C59.8255 9.52629 59.6398 9.50678 59.4764 9.50678C59.1533 9.50678 58.8617 9.61549 58.6017 9.83293C58.3455 10.0448 58.143 10.3431 57.9945 10.7278C57.8496 11.1069 57.7772 11.5529 57.7772 12.0659V19.0406H55.0529Z" fill="white"/>
<path d="M65.2064 19.2831C64.3038 19.2831 63.5294 19.0043 62.8832 18.4468C62.2406 17.8893 61.7467 17.1143 61.4013 16.1219C61.0558 15.1239 60.8831 13.9698 60.8831 12.6596C60.8831 11.3438 61.0558 10.1898 61.4013 9.19735C61.7504 8.19936 62.2462 7.4216 62.8888 6.86407C63.535 6.30654 64.3057 6.02777 65.2008 6.02777C65.9919 6.02777 66.6809 6.24242 67.2677 6.67172C67.8582 7.10102 68.3188 7.70873 68.6494 8.49485C68.9836 9.2754 69.16 10.1925 69.1786 11.2463H66.6326C66.5806 10.5884 66.432 10.0727 66.1869 9.69912C65.9455 9.32558 65.6298 9.1388 65.2398 9.1388C64.9241 9.1388 64.6474 9.27261 64.4097 9.54023C64.172 9.80227 63.9863 10.1925 63.8526 10.711C63.7226 11.224 63.6576 11.8596 63.6576 12.6178C63.6576 13.3761 63.7226 14.0172 63.8526 14.5413C63.9863 15.0598 64.172 15.4529 64.4097 15.7205C64.6474 15.9825 64.9241 16.1135 65.2398 16.1135C65.4924 16.1135 65.7152 16.0327 65.9083 15.871C66.1052 15.7093 66.2667 15.4724 66.393 15.1602C66.5193 14.8424 66.5992 14.4577 66.6326 14.0061H69.1786C69.1526 15.0654 68.9762 15.9909 68.6494 16.7826C68.3262 17.5743 67.8712 18.1903 67.2844 18.6308C66.7013 19.0657 66.0086 19.2831 65.2064 19.2831Z" fill="white"/>
<path d="M76.0938 13.4959V6.19503H78.8126V19.0406H76.2164V16.6488H76.1273C75.9378 17.4349 75.6147 18.0593 75.1579 18.5221C74.7048 18.9793 74.1569 19.2078 73.5144 19.2078C72.9313 19.2078 72.4187 19.0071 71.9767 18.6057C71.5348 18.2043 71.1912 17.644 70.9461 16.9247C70.7009 16.2 70.5765 15.3525 70.5728 14.3824V6.19503H73.2971V13.5796C73.3008 14.2765 73.4234 14.8256 73.6648 15.2271C73.9062 15.6285 74.2349 15.8292 74.6509 15.8292C74.922 15.8292 75.1653 15.74 75.3807 15.5616C75.5999 15.3776 75.7726 15.1128 75.8988 14.7671C76.0288 14.4159 76.0938 13.9921 76.0938 13.4959Z" fill="white"/>
<path d="M85.3768 6.19503V9.20571H79.9783V6.19503H85.3768ZM81.1093 3.11745H83.8336V15.0013C83.8336 15.2521 83.8596 15.4556 83.9116 15.6118C83.9673 15.7623 84.0471 15.871 84.1511 15.9379C84.2551 15.9992 84.3796 16.0299 84.5244 16.0299C84.6284 16.0299 84.738 16.016 84.8531 15.9881C84.972 15.9546 85.0611 15.9268 85.1205 15.9045L85.5328 18.8566C85.4028 18.9123 85.219 18.982 84.9813 19.0657C84.7473 19.1493 84.4669 19.2023 84.14 19.2246C83.5012 19.2692 82.9533 19.1577 82.4965 18.89C82.0434 18.6169 81.6961 18.1931 81.4547 17.6189C81.217 17.0446 81.1019 16.3226 81.1093 15.4529V3.11745Z" fill="white"/>
<path d="M94.1305 10.1173L91.6291 10.2176C91.6031 9.95001 91.5325 9.71306 91.4174 9.50678C91.3022 9.29491 91.1518 9.13044 90.9661 9.01336C90.7841 8.8907 90.5724 8.82937 90.331 8.82937C90.0153 8.82937 89.746 8.92415 89.5232 9.11372C89.304 9.30328 89.1963 9.55974 89.2 9.88311C89.1963 10.134 89.2632 10.3514 89.4006 10.5354C89.5417 10.7194 89.7924 10.8672 90.1527 10.9787L91.8018 11.447C92.656 11.6923 93.2911 12.0993 93.7071 12.668C94.1268 13.2367 94.3385 13.9893 94.3422 14.926C94.3385 15.8069 94.1639 16.5735 93.8185 17.2258C93.4768 17.8781 93.0089 18.3855 92.4146 18.7479C91.8203 19.1047 91.1407 19.2831 90.3755 19.2831C89.1536 19.2831 88.1898 18.9068 87.4841 18.1541C86.7821 17.3959 86.381 16.3812 86.2807 15.11L88.9716 15.0096C89.031 15.478 89.1852 15.8348 89.434 16.0801C89.6829 16.3254 90.0004 16.4481 90.3867 16.4481C90.7358 16.4481 91.0199 16.3505 91.2391 16.1554C91.4582 15.9602 91.5696 15.701 91.5733 15.3776C91.5696 15.0877 91.4842 14.8563 91.3171 14.6835C91.1499 14.5051 90.8881 14.3657 90.5315 14.2653L89.0385 13.8388C88.1805 13.6046 87.5417 13.1726 87.122 12.5425C86.7023 11.907 86.4943 11.0985 86.498 10.1173C86.4943 9.25867 86.6466 8.52552 86.9548 7.91781C87.2631 7.30452 87.7014 6.8362 88.2696 6.51283C88.8379 6.18946 89.5083 6.02777 90.2808 6.02777C91.4396 6.02777 92.3533 6.39296 93.0219 7.12332C93.6904 7.84812 94.06 8.8461 94.1305 10.1173Z" fill="white"/>
</svg>
