<svg width="46" height="46" viewBox="0 0 46 46" fill="none" xmlns="http://www.w3.org/2000/svg">
<path d="M22.6758 0.907104C16.9023 0.907104 11.3652 3.20062 7.28274 7.28311C3.20026 11.3656 0.906738 16.9026 0.906738 22.6762C0.906887 25.5349 1.47011 28.3656 2.56424 31.0067C3.65838 33.6478 5.262 36.0475 7.28354 38.0689C9.30509 40.0902 11.705 41.6936 14.3462 42.7874C16.9874 43.8813 19.8182 44.4442 22.6769 44.4441C25.5357 44.4439 28.3664 43.8807 31.0075 42.7866C33.6486 41.6924 36.0483 40.0888 38.0696 38.0673C40.091 36.0457 41.6943 33.6458 42.7882 31.0046C43.882 28.3634 44.445 25.5326 44.4448 22.6739C44.4448 10.6533 34.6964 0.907104 22.6758 0.907104ZM22.6758 39.9077C20.3961 39.9339 18.1339 39.5074 16.0202 38.6531C13.9065 37.7989 11.9833 36.5337 10.362 34.9309C8.74075 33.3281 7.45358 31.4195 6.5751 29.3158C5.69661 27.212 5.24427 24.9548 5.24427 22.675C5.24427 20.3952 5.69661 18.138 6.5751 16.0343C7.45358 13.9305 8.74075 12.022 10.362 10.4192C11.9833 8.81637 13.9065 7.55118 16.0202 6.69689C18.1339 5.84259 20.3961 5.41617 22.6758 5.44232C24.9554 5.41617 27.2176 5.84259 29.3313 6.69689C31.445 7.55118 33.3682 8.81637 34.9895 10.4192C36.6108 12.022 37.898 13.9305 38.7765 16.0343C39.6549 18.138 40.1073 20.3952 40.1073 22.675C40.1073 24.9548 39.6549 27.212 38.7765 29.3158C37.898 31.4195 36.6108 33.3281 34.9895 34.9309C33.3682 36.5337 31.445 37.7989 29.3313 38.6531C27.2176 39.5074 24.9554 39.9339 22.6758 39.9077ZM17.009 22.1092C18.8866 22.1092 20.4082 20.3337 20.4082 18.1409C20.4082 15.9482 18.8843 14.1726 17.0068 14.1726C15.1292 14.1726 13.6053 15.9482 13.6053 18.1409C13.6053 20.3337 15.1292 22.1092 17.009 22.1092ZM28.3448 22.1092C30.2247 22.1092 31.7462 20.3337 31.7462 18.1409C31.7462 15.9482 30.2224 14.1726 28.3448 14.1726C26.4672 14.1726 24.9434 15.9504 24.9434 18.1409C24.9434 20.3314 26.4672 22.1092 28.3448 22.1092ZM32.5195 25.7057C32.1192 25.5038 31.6559 25.4667 31.2286 25.6023C30.8013 25.7379 30.4442 26.0355 30.2337 26.4313C30.1566 26.581 28.2632 30.0436 22.6781 30.0436C17.1201 30.0436 15.2153 26.6127 15.1201 26.4336C14.9162 26.0309 14.5608 25.7258 14.1319 25.5852C13.703 25.4447 13.2359 25.4803 12.8332 25.6841C12.4306 25.888 12.1254 26.2435 11.9849 26.6724C11.8443 27.1012 11.8799 27.5684 12.0838 27.971C12.1972 28.1955 14.9138 33.445 22.6781 33.445C30.4446 33.445 33.1567 28.1932 33.2678 27.9687C33.4676 27.5692 33.501 27.1068 33.3608 26.6827C33.2206 26.2586 32.9181 25.9073 32.5195 25.7057Z" fill="white"/>
</svg>
