<svg width="106" height="21" viewBox="0 0 106 21" fill="none" xmlns="http://www.w3.org/2000/svg">
<path fill-rule="evenodd" clip-rule="evenodd" d="M79.5042 0.00704483C82.329 -0.0140897 84.0764 0.0704483 84.7509 0.260659C85.7319 0.549497 86.4458 1.12717 86.8969 2.00073C87.3304 2.83202 87.6063 3.95215 87.7246 5.36816C87.799 6.17127 87.8341 7.73522 87.8428 10.0389C87.8516 12.892 87.7071 14.8646 87.4136 15.9777C87.1246 17.0555 86.7085 17.8446 86.1699 18.3377C85.7319 18.7463 85.2808 19.0281 84.8122 19.1831C84.3436 19.3451 83.6473 19.4508 82.7276 19.5001C81.8998 19.5564 80.9232 19.5846 79.7977 19.5917C77.1875 19.6128 75.5451 19.5283 74.8663 19.324C73.9422 19.0492 73.2678 18.542 72.8255 17.8023C72.3919 17.0626 72.0897 16.0199 71.9277 14.6603C71.8269 13.829 71.7744 12.1805 71.7656 9.73595C71.7656 8.1086 71.7744 6.98143 71.8007 6.34035C71.8313 5.69927 71.8926 5.05819 72.0021 4.42415C72.2123 3.11381 72.6109 2.12049 73.2021 1.44419C73.8284 0.739707 74.8926 0.295883 76.386 0.126807C77.0167 0.0563586 78.059 0.0140897 79.5042 0H79.4999L79.5042 0.00704483ZM79.8196 4.70595C78.3568 4.72004 77.3977 4.77639 76.9422 4.89616C76.2634 5.07228 75.8254 5.49497 75.6459 6.17127C75.4838 6.74895 75.4006 7.93952 75.405 9.73595C75.405 11.6521 75.497 12.892 75.659 13.4556C75.8692 14.1812 76.3378 14.6251 77.0648 14.7871C77.4809 14.8787 78.3743 14.9209 79.7539 14.9069C81.4838 14.8928 82.5611 14.8012 82.9859 14.6251C83.4764 14.4137 83.8049 14.0474 83.9801 13.519C84.1246 13.0893 84.221 12.4341 84.256 11.5535C84.2735 11.1379 84.2823 10.4757 84.2779 9.54574C84.2735 7.71409 84.1903 6.52351 84.0239 5.98106C83.9188 5.63586 83.783 5.38929 83.6166 5.24135C83.3056 4.97365 82.9115 4.81162 82.4341 4.77639C81.7772 4.71299 80.9057 4.69186 79.8152 4.6989H79.8239L79.8196 4.70595Z" fill="white"/>
<path fill-rule="evenodd" clip-rule="evenodd" d="M21.9222 15.8507C22.0098 15.8648 26.6171 15.8366 26.7134 15.8507C27.5587 15.9 28.728 15.9 30.2258 15.8366C31.3294 15.7944 32.0345 15.6535 32.3367 15.3998C32.6214 15.1533 32.7659 14.7165 32.7659 14.0895C32.7659 13.2441 32.5601 12.7087 32.1572 12.4974C31.9163 12.3706 31.5134 12.3001 30.9528 12.3001H29.9148L26.6784 12.3283C25.7981 12.3283 25.0404 12.2931 24.3967 12.2085C23.3543 12.0747 22.6142 11.5393 22.1762 10.6094C21.7908 9.77807 21.6025 8.46773 21.5981 6.67835C21.5981 4.9101 21.7689 3.59976 22.1281 2.76142C22.3865 2.16966 22.7456 1.71879 23.2186 1.40177C23.9061 0.957946 24.966 0.683198 26.3893 0.577526C26.9455 0.535257 27.7426 0.514122 28.7849 0.507077C29.3455 0.507077 35.2228 0.457764 35.6827 0.457764L35.6958 4.57899C35.4812 4.57899 29.8886 4.61421 29.6433 4.61421C28.2331 4.6283 27.147 4.67762 26.3981 4.7692C25.8375 4.8326 25.4828 5.02986 25.3295 5.33279C25.1981 5.60753 25.1324 5.94569 25.1324 6.36133C25.1324 7.1574 25.3952 7.66462 25.9032 7.88301C26.0434 7.94642 26.5251 7.98869 27.3441 8.00982L30.6813 7.98164C31.2681 7.98164 32.1002 8.01687 33.1863 8.1014C34.4389 8.19299 35.2929 8.77066 35.7396 9.8133C36.125 10.715 36.3221 12.0254 36.3265 13.7514C36.3352 15.9071 36.0462 17.4428 35.4593 18.3587C35.0214 19.042 34.2725 19.4858 33.2258 19.669C32.1002 19.8663 30.6199 19.9719 28.7806 19.986C27.9046 19.986 22.6186 20.0283 21.9529 20.0072L21.9397 15.8859L21.931 15.8648L21.9222 15.8507Z" fill="white"/>
<path fill-rule="evenodd" clip-rule="evenodd" d="M105.225 4.57209L96.1067 4.64254C95.4278 4.64254 94.9461 4.72708 94.6527 4.88207C94.0833 5.17795 93.7417 5.90357 93.6454 7.05892C93.5884 7.70704 93.5622 8.57356 93.5665 9.65846C93.5665 11.0392 93.641 12.0678 93.7768 12.7441C93.9344 13.5613 94.2585 14.0826 94.7534 14.3151C95.0775 14.463 95.5154 14.5335 96.0804 14.5264L105.255 14.456L105.273 19.2112L95.5724 19.2887C94.53 19.2887 93.6498 19.2042 92.9447 18.9999C91.8585 18.697 91.079 17.8516 90.5972 16.4708C90.3739 15.8015 90.2162 14.9703 90.133 13.9699C90.0323 12.7511 89.9797 11.3351 89.9753 9.72186C89.9753 7.77045 90.0191 6.15718 90.133 4.89616C90.2381 3.6774 90.5491 2.62772 91.0615 1.74712C91.4775 1.04263 91.9899 0.584721 92.5987 0.380421C93.1636 0.19021 93.9782 0.0845379 95.0512 0.0774931L105.22 0L105.234 4.57914L105.225 4.57209Z" fill="white"/>
<path fill-rule="evenodd" clip-rule="evenodd" d="M69.58 15.0128L63.2604 15.0692C62.0954 15.0692 61.3684 14.8226 61.0882 14.2942C60.9349 13.9913 60.8429 13.5475 60.8254 12.9416C60.8122 12.6739 60.7991 12.1456 60.7903 11.3354L60.7597 0.275024L57.1772 0.303204L57.2079 10.2153C57.221 12.1103 57.2429 13.4277 57.2824 14.1533C57.3612 15.8018 57.7247 17.0981 58.3729 18.0421C58.9728 18.9227 59.8969 19.4299 61.1407 19.5708C61.4648 19.6131 68.4063 19.5708 69.5976 19.5708L69.5844 15.0128H69.58Z" fill="white"/>
<path d="M9.01554 19.9793L8.97174 5.51625H8.67832L2.0959 5.57261L2.08276 0.817349L19.4125 0.676453L19.4256 5.43171L13.1761 5.48807H12.5542L12.598 19.9511L9.01554 19.9793Z" fill="white"/>
<path d="M48.4843 8.62238H49.0493C49.6755 8.62238 50.0653 8.5308 50.258 8.36877C50.5602 8.1222 50.7091 7.64315 50.7091 6.93867C50.7091 6.10738 50.4989 5.57902 50.0785 5.36063C49.8989 5.26904 49.5354 5.21973 48.9836 5.22677L43.9647 5.26904L42.4012 5.28313L38.8012 5.31131V4.79L38.7837 0.527874L42.3837 0.499694L50.1836 0.436291C51.4361 0.422201 52.3383 0.647636 52.8857 1.10555C53.4069 1.54233 53.7792 2.16227 53.9894 2.97243C54.1558 3.62055 54.2434 4.45184 54.2478 5.47334C54.2478 7.14297 54.0025 8.3265 53.4945 9.00985C53.1967 9.4114 52.6887 9.70024 51.9573 9.8975C52.8901 10.0384 53.3368 10.3272 53.7003 10.7429C54.2609 11.391 54.5456 12.5886 54.55 14.3498C54.5587 16.6183 54.112 18.154 53.2142 18.9501C52.6974 19.401 52.0011 19.6335 50.7179 19.6405L42.4406 19.7039L38.8406 19.7321V18.1399L38.8275 15.47L38.8056 8.69283L40.6318 8.67874L42.4056 8.66465L48.4799 8.61534L48.4843 8.62238ZM49.5091 15.3854C50.0609 15.3854 50.4244 15.322 50.5952 15.2163C50.9763 14.998 51.1602 14.4696 51.1602 13.6383C51.1602 12.7788 50.9544 12.2364 50.5514 11.9969C50.3982 11.9053 50.0128 11.856 49.404 11.863H49.0668L42.4274 11.9475L42.4406 15.4277L49.5179 15.3643L49.5091 15.3854Z" fill="white"/>
</svg>
