<svg width="70" height="70" viewBox="0 0 70 70" fill="none" xmlns="http://www.w3.org/2000/svg">
<path d="M40.985 5.34626C40.537 4.98013 40.0209 4.7065 39.4664 4.5412C38.912 4.37589 38.3302 4.3222 37.7549 4.38324C37.1796 4.44427 36.6221 4.61881 36.1146 4.89676C35.6072 5.17471 35.1599 5.55054 34.7987 6.00251L22.1288 21.875H27.7287L38.2156 8.73251L41.5844 11.4844L33.1406 21.875H38.7756L44.975 14.245L52.4912 20.3831L51.1875 21.875H52.5C53.8047 21.8736 55.1023 22.0668 56.35 22.4481C56.8266 21.554 56.9781 20.5222 56.7786 19.5288C56.5792 18.5354 56.0411 17.6421 55.2563 17.0013L40.985 5.34626ZM13.125 24.0625C13.125 23.4823 13.3555 22.9259 13.7657 22.5157C14.1759 22.1055 14.7323 21.875 15.3125 21.875H17.7538L21.2319 17.5H15.3125C13.572 17.5 11.9028 18.1914 10.6721 19.4221C9.4414 20.6528 8.75 22.322 8.75 24.0625V50.3125C8.75 53.2133 9.90234 55.9953 11.9535 58.0465C14.0047 60.0977 16.7867 61.25 19.6875 61.25H52.5C54.8206 61.25 57.0462 60.3281 58.6872 58.6872C60.3281 57.0462 61.25 54.8207 61.25 52.5V35C61.25 32.6794 60.3281 30.4538 58.6872 28.8128C57.0462 27.1719 54.8206 26.25 52.5 26.25H15.3125C14.7323 26.25 14.1759 26.0195 13.7657 25.6093C13.3555 25.1991 13.125 24.6427 13.125 24.0625ZM45.9375 43.75H50.3125C50.8927 43.75 51.4491 43.9805 51.8593 44.3907C52.2695 44.8009 52.5 45.3573 52.5 45.9375C52.5 46.5177 52.2695 47.0741 51.8593 47.4843C51.4491 47.8945 50.8927 48.125 50.3125 48.125H45.9375C45.3573 48.125 44.8009 47.8945 44.3907 47.4843C43.9805 47.0741 43.75 46.5177 43.75 45.9375C43.75 45.3573 43.9805 44.8009 44.3907 44.3907C44.8009 43.9805 45.3573 43.75 45.9375 43.75Z" fill="white"/>
</svg>
